<svg id="visual" viewBox="0 0 900 600" width="900" height="600" xmlns="http://www.w3.org/2000/svg" xmlns:xlink="http://www.w3.org/1999/xlink" version="1.1"><rect x="0" y="0" width="900" height="600" fill="#212529"></rect><path d="M0 511L21.5 515C43 519 86 527 128.8 528.3C171.7 529.7 214.3 524.3 257.2 529C300 533.7 343 548.3 385.8 554.7C428.7 561 471.3 559 514.2 559.2C557 559.3 600 561.7 642.8 560.7C685.7 559.7 728.3 555.3 771.2 549.3C814 543.3 857 535.7 878.5 531.8L900 528L900 601L878.5 601C857 601 814 601 771.2 601C728.3 601 685.7 601 642.8 601C600 601 557 601 514.2 601C471.3 601 428.7 601 385.8 601C343 601 300 601 257.2 601C214.3 601 171.7 601 128.8 601C86 601 43 601 21.5 601L0 601Z" fill="#e1e1e1" stroke-linecap="round" stroke-linejoin="miter"></path></svg>