<svg id="visual" viewBox="0 0 960 540" width="960" height="540" xmlns="http://www.w3.org/2000/svg" xmlns:xlink="http://www.w3.org/1999/xlink" version="1.1"><rect x="0" y="0" width="960" height="540" fill="#e1e1e1"></rect><path d="M0 429L22.8 433.5C45.7 438 91.3 447 137 435.5C182.7 424 228.3 392 274 390.2C319.7 388.3 365.3 416.7 411.2 419.3C457 422 503 399 548.8 388C594.7 377 640.3 378 686 375.7C731.7 373.3 777.3 367.7 823 363.2C868.7 358.7 914.3 355.3 937.2 353.7L960 352L960 541L937.2 541C914.3 541 868.7 541 823 541C777.3 541 731.7 541 686 541C640.3 541 594.7 541 548.8 541C503 541 457 541 411.2 541C365.3 541 319.7 541 274 541C228.3 541 182.7 541 137 541C91.3 541 45.7 541 22.8 541L0 541Z" fill="#0e4dad" stroke-linecap="round" stroke-linejoin="miter"></path></svg>