<svg id="visual" viewBox="0 0 960 540" width="960" height="540" xmlns="http://www.w3.org/2000/svg" xmlns:xlink="http://www.w3.org/1999/xlink" version="1.1"><rect x="0" y="0" width="960" height="540" fill="#E1E1E1"></rect><path d="M0 462L17.8 458.3C35.7 454.7 71.3 447.3 106.8 443.7C142.3 440 177.7 440 213.2 442.5C248.7 445 284.3 450 320 454.5C355.7 459 391.3 463 426.8 468.8C462.3 474.7 497.7 482.3 533.2 476.8C568.7 471.3 604.3 452.7 640 445C675.7 437.3 711.3 440.7 746.8 446.8C782.3 453 817.7 462 853.2 468.2C888.7 474.3 924.3 477.7 942.2 479.3L960 481L960 541L942.2 541C924.3 541 888.7 541 853.2 541C817.7 541 782.3 541 746.8 541C711.3 541 675.7 541 640 541C604.3 541 568.7 541 533.2 541C497.7 541 462.3 541 426.8 541C391.3 541 355.7 541 320 541C284.3 541 248.7 541 213.2 541C177.7 541 142.3 541 106.8 541C71.3 541 35.7 541 17.8 541L0 541Z" fill="#0f3152" stroke-linecap="round" stroke-linejoin="miter"></path></svg>